<mxfile host="app.diagrams.net" modified="2024-03-11T02:13:35.419Z" agent="Mozilla/5.0 (Macintosh; Intel Mac OS X 10_15_7) AppleWebKit/537.36 (KHTML, like Gecko) Chrome/122.0.0.0 Safari/537.36" version="21.6.1" etag="16HFeoq5dfV61ktHYn_8" type="github">
  <diagram name="Page-1" id="Vu7PVHk5IhnJ7YgcWroQ">
    <mxGraphModel>
      <root>
        <mxCell id="0" />
        <mxCell id="1" parent="0" />
      </root>
    </mxGraphModel>
  </diagram>
</mxfile>
